<svg width="400" height="400" viewBox="0 0 400 400" fill="none" xmlns="http://www.w3.org/2000/svg">
<g clip-path="url(#clip0)">
<rect width="384" height="131" transform="matrix(1 0 0 -1 0 371)" fill="white"/>
<rect x="114" y="57" width="259" height="71" fill="white"/>
<rect width="43" height="47" transform="matrix(1 0 0 -1 165 229)" fill="white"/>
<path d="M383.823 240.218C380.916 244.012 378.015 247.809 375.102 251.597C366.52 262.76 357.932 273.918 349.348 285.08C339.245 298.216 329.144 311.354 319.041 324.49C318.884 324.695 318.756 324.929 318.517 325.065C318.247 324.923 318.11 324.657 317.936 324.431C299.268 300.155 280.603 275.877 261.938 251.599C259.165 247.993 256.394 244.386 253.63 240.773C253.463 240.555 253.179 240.387 253.224 240.044C296.496 240.044 339.768 240.044 383.04 240.055C383.294 240.055 383.63 239.855 383.823 240.218Z" fill="#FFCC00"/>
<path d="M53.7707 370.688C56.9613 370.303 60.1428 369.865 63.2679 369.088C75.1651 366.131 85.2738 360.189 93.3524 350.93C97.7726 345.864 100.819 340.057 102.16 333.431C104.182 323.437 102.703 314.007 97.3618 305.274C92.8038 297.822 86.5571 292.093 79.0512 287.698C76.121 285.982 73.0478 284.563 69.871 283.367C69.7085 283.306 69.5492 283.232 69.3822 283.187C69.0417 283.095 69.0123 282.897 69.1186 282.595C69.3972 281.803 69.7015 281.017 69.9143 280.207C72.3722 270.852 70.5458 262.389 64.3893 254.957C59.388 248.919 53.0251 244.797 45.5942 242.329C42.4787 241.294 39.2788 240.638 36.0052 240.353C35.6601 240.323 35.3191 240.248 34.9761 240.193C34.9789 240.144 34.9807 240.094 34.9816 240.044H121.931C121.922 240.391 121.904 240.739 121.904 241.086C121.903 283.845 121.903 326.605 121.903 369.365C121.903 369.799 121.897 370.233 121.894 370.667C121.608 370.85 121.287 370.827 120.968 370.827C98.8465 370.826 76.7246 370.826 54.6027 370.822C54.3225 370.822 54.0189 370.91 53.7707 370.688Z" fill="#FF2A2A"/>
<path d="M121.894 370.667C121.897 370.233 121.903 369.799 121.903 369.365C121.903 326.605 121.903 283.845 121.904 241.086C121.904 240.739 121.922 240.391 121.931 240.044H187.143C187.3 240.433 186.999 240.695 186.856 240.983C183.928 246.866 180.989 252.744 178.05 258.622C159.536 295.651 141.021 332.679 122.509 369.708C122.355 370.017 122.157 370.31 122.096 370.661C122.029 370.663 121.961 370.665 121.894 370.667Z" fill="#2A7FFF"/>
<path d="M252.703 240.044C252.712 240.392 252.728 240.739 252.728 241.086C252.729 283.865 252.729 326.643 252.729 369.421V370.516C252.68 370.529 252.632 370.543 252.584 370.557C252.44 370.292 252.289 370.03 252.154 369.76C238.539 342.534 224.926 315.308 211.313 288.081C203.477 272.408 195.642 256.735 187.814 241.058C187.657 240.744 187.341 240.463 187.491 240.044H252.703Z" fill="#2A7FFF"/>
<path d="M153.928 371C153.907 370.721 154.065 370.504 154.181 370.273C165.057 348.511 175.933 326.749 186.812 304.989C186.948 304.716 187.044 304.409 187.317 304.157C187.589 304.409 187.685 304.716 187.822 304.989C198.701 326.749 209.577 348.511 220.453 370.273C220.568 370.504 220.727 370.721 220.706 371H153.928Z" fill="#2A7FFF"/>
<path d="M280.005 371C279.999 370.652 279.988 370.305 279.988 369.957C279.987 353.264 279.987 336.572 279.987 319.879V318.942L280.143 318.864C282.003 321.199 283.788 323.594 285.612 325.959C287.435 328.322 289.244 330.695 291.06 333.064C292.894 335.454 294.73 337.844 296.564 340.235C298.38 342.603 300.194 344.973 302.01 347.341C303.843 349.733 305.676 352.124 307.509 354.515C309.326 356.884 311.143 359.251 312.96 361.618C314.791 364.005 316.623 366.391 318.512 368.852C331.333 352.134 344.092 335.497 356.841 318.874C356.937 318.919 356.967 318.926 356.988 318.944C357.007 318.96 357.025 318.988 357.025 319.011C357.032 336.051 357.037 353.091 357.042 370.131C357.042 370.421 357.042 370.71 357.042 371H280.005Z" fill="#FFCC00"/>
<path d="M23.0102 325.068C23.0102 318.866 23.0084 312.664 23.0123 306.462C23.0129 305.564 22.82 305.511 23.9417 305.512C31.4763 305.515 39.0108 305.516 46.5454 305.513C50.8602 305.511 55.0173 306.242 58.9232 308.151C62.7192 310.006 65.9372 312.554 68.2625 316.12C72.5677 322.722 71.6963 331.197 66.1334 336.987C62.3783 340.895 57.7938 343.258 52.4778 344.235C50.5917 344.582 48.6904 344.734 46.7737 344.733C39.1523 344.73 31.5308 344.733 23.9092 344.733C23.7644 344.733 23.6189 344.724 23.4747 344.734C23.1477 344.756 22.9885 344.621 23.0091 344.282C23.0214 344.08 23.0103 343.876 23.0102 343.674C23.0102 337.472 23.0102 331.27 23.0102 325.068Z" fill="#FF2B2B"/>
<path d="M23.0102 272.766C23.0102 270.826 23.0072 268.885 23.0117 266.944C23.0133 266.257 23.0216 266.238 23.65 266.239C26.4303 266.246 29.2105 266.262 31.9907 266.281C32.8938 266.288 33.7795 266.444 34.6424 266.697C37.1927 267.444 38.6429 269.14 38.9356 271.789C39.0475 272.801 39.0122 273.817 38.7605 274.811C38.3189 276.553 37.2696 277.779 35.6126 278.496C34.2841 279.071 32.8798 279.263 31.459 279.286C28.8529 279.329 26.2458 279.31 23.6392 279.308C23.0292 279.308 23.015 279.291 23.0128 278.675C23.0057 276.706 23.0102 274.736 23.0102 272.766Z" fill="#FF2B2B"/>
<path d="M62.6561 44L25 83.5996V44H62.6561Z" fill="url(#paint0_linear)"/>
<path d="M62.6561 44L25 83.5996V119L62.602 81.3331L100 44H62.6561Z" fill="url(#paint1_linear)"/>
<path d="M62.602 81.3305L100 118.997H25L62.602 81.3305Z" fill="url(#paint2_linear)"/>
<path d="M131.508 101.246L145.465 119H153.727L135.973 96.8164L151.371 80.9609H143.461L130.98 93.4766L126.727 98.0469V65H120.188V119H126.727V105.852L131.508 101.246ZM188.637 108.91C188.637 109.52 188.52 110.094 188.285 110.633C188.051 111.172 187.711 111.664 187.266 112.109C186.539 112.836 185.531 113.41 184.242 113.832C182.953 114.23 181.441 114.43 179.707 114.43C178.605 114.43 177.492 114.312 176.367 114.078C175.242 113.844 174.223 113.445 173.309 112.883C172.371 112.32 171.586 111.582 170.953 110.668C170.344 109.754 169.992 108.629 169.898 107.293H163.395C163.395 108.91 163.758 110.469 164.484 111.969C165.234 113.469 166.312 114.781 167.719 115.906C169.102 117.055 170.801 117.98 172.816 118.684C174.832 119.363 177.129 119.703 179.707 119.703C181.957 119.703 184.031 119.434 185.93 118.895C187.828 118.355 189.457 117.594 190.816 116.609C192.176 115.625 193.23 114.441 193.98 113.059C194.754 111.676 195.141 110.141 195.141 108.453C195.141 106.883 194.801 105.5 194.121 104.305C193.465 103.109 192.504 102.055 191.238 101.141C189.973 100.25 188.414 99.4883 186.562 98.8555C184.711 98.1992 182.613 97.625 180.27 97.1328C178.488 96.7812 177.012 96.418 175.84 96.043C174.691 95.668 173.777 95.2461 173.098 94.7773C172.395 94.3086 171.902 93.7812 171.621 93.1953C171.34 92.6094 171.199 91.9414 171.199 91.1914C171.199 90.4648 171.375 89.7617 171.727 89.082C172.078 88.4023 172.605 87.8047 173.309 87.2891C173.988 86.7734 174.844 86.3633 175.875 86.0586C176.93 85.7539 178.148 85.6016 179.531 85.6016C180.867 85.6016 182.062 85.7891 183.117 86.1641C184.195 86.5391 185.109 87.0312 185.859 87.6406C186.609 88.25 187.195 88.9531 187.617 89.75C188.039 90.5234 188.25 91.3203 188.25 92.1406H194.754C194.754 90.4766 194.391 88.9297 193.664 87.5C192.961 86.0469 191.953 84.7812 190.641 83.7031C189.328 82.625 187.734 81.7812 185.859 81.1719C183.984 80.5625 181.875 80.2578 179.531 80.2578C177.352 80.2578 175.348 80.5508 173.52 81.1367C171.715 81.7227 170.156 82.5195 168.844 83.5273C167.531 84.5352 166.512 85.7188 165.785 87.0781C165.059 88.4141 164.695 89.8555 164.695 91.4023C164.695 92.9727 165.047 94.3555 165.75 95.5508C166.453 96.7227 167.449 97.7422 168.738 98.6094C170.004 99.5 171.527 100.262 173.309 100.895C175.113 101.527 177.105 102.066 179.285 102.512C181.066 102.863 182.555 103.262 183.75 103.707C184.945 104.129 185.906 104.598 186.633 105.113C187.359 105.629 187.875 106.203 188.18 106.836C188.484 107.445 188.637 108.137 188.637 108.91ZM222 71.75H215.461V80.9609H205.477V85.9883H215.461V106.66C215.461 109.004 215.766 111.008 216.375 112.672C217.008 114.312 217.863 115.648 218.941 116.68C220.02 117.734 221.285 118.508 222.738 119C224.215 119.469 225.797 119.703 227.484 119.703C228.492 119.703 229.5 119.656 230.508 119.562C231.539 119.469 232.512 119.328 233.426 119.141C234.34 118.977 235.184 118.777 235.957 118.543C236.73 118.285 237.387 117.992 237.926 117.664L237.012 113.059C236.613 113.152 236.098 113.27 235.465 113.41C234.855 113.527 234.199 113.645 233.496 113.762C232.77 113.879 232.031 113.984 231.281 114.078C230.531 114.148 229.805 114.184 229.102 114.184C228.141 114.184 227.227 114.066 226.359 113.832C225.516 113.598 224.766 113.188 224.109 112.602C223.453 112.039 222.938 111.277 222.562 110.316C222.188 109.355 222 108.137 222 106.66V85.9883H236.484V80.9609H222V71.75ZM274.84 119H281.625V118.438C281.203 117.383 280.875 116.152 280.641 114.746C280.406 113.316 280.289 111.969 280.289 110.703V93.0195C280.289 90.8867 279.902 89.0234 279.129 87.4297C278.355 85.8359 277.301 84.5 275.965 83.4219C274.605 82.3672 273 81.582 271.148 81.0664C269.297 80.5273 267.293 80.2578 265.137 80.2578C262.77 80.2578 260.648 80.5859 258.773 81.2422C256.922 81.8984 255.352 82.7539 254.062 83.8086C252.75 84.8867 251.742 86.0938 251.039 87.4297C250.359 88.7656 250.008 90.125 249.984 91.5078H256.523C256.523 90.7109 256.711 89.9492 257.086 89.2227C257.484 88.4727 258.035 87.8281 258.738 87.2891C259.441 86.75 260.297 86.3164 261.305 85.9883C262.336 85.6602 263.496 85.4961 264.785 85.4961C266.168 85.4961 267.41 85.6719 268.512 86.0234C269.637 86.375 270.586 86.8672 271.359 87.5C272.133 88.1562 272.73 88.9414 273.152 89.8555C273.574 90.7695 273.785 91.8008 273.785 92.9492V95.9375H266.684C264.035 95.9375 261.633 96.1953 259.477 96.7109C257.344 97.2266 255.516 98 253.992 99.0312C252.469 100.086 251.285 101.398 250.441 102.969C249.621 104.539 249.211 106.367 249.211 108.453C249.211 110.047 249.516 111.535 250.125 112.918C250.758 114.277 251.648 115.449 252.797 116.434C253.922 117.441 255.293 118.238 256.91 118.824C258.551 119.41 260.379 119.703 262.395 119.703C263.637 119.703 264.809 119.574 265.91 119.316C267.012 119.059 268.055 118.707 269.039 118.262C270 117.816 270.879 117.301 271.676 116.715C272.496 116.129 273.234 115.508 273.891 114.852C273.961 115.648 274.066 116.422 274.207 117.172C274.371 117.898 274.582 118.508 274.84 119ZM263.344 114.043C262.078 114.043 260.965 113.879 260.004 113.551C259.043 113.223 258.246 112.766 257.613 112.18C256.98 111.617 256.5 110.938 256.172 110.141C255.867 109.344 255.715 108.477 255.715 107.539C255.715 106.555 255.891 105.676 256.242 104.902C256.617 104.129 257.156 103.461 257.859 102.898C258.844 102.102 260.168 101.516 261.832 101.141C263.52 100.742 265.488 100.543 267.738 100.543H273.785V108.242C273.41 108.992 272.895 109.719 272.238 110.422C271.582 111.102 270.809 111.711 269.918 112.25C269.004 112.789 267.996 113.223 266.895 113.551C265.793 113.879 264.609 114.043 263.344 114.043ZM308.484 71.75H301.945V80.9609H291.961V85.9883H301.945V106.66C301.945 109.004 302.25 111.008 302.859 112.672C303.492 114.312 304.348 115.648 305.426 116.68C306.504 117.734 307.77 118.508 309.223 119C310.699 119.469 312.281 119.703 313.969 119.703C314.977 119.703 315.984 119.656 316.992 119.562C318.023 119.469 318.996 119.328 319.91 119.141C320.824 118.977 321.668 118.777 322.441 118.543C323.215 118.285 323.871 117.992 324.41 117.664L323.496 113.059C323.098 113.152 322.582 113.27 321.949 113.41C321.34 113.527 320.684 113.645 319.98 113.762C319.254 113.879 318.516 113.984 317.766 114.078C317.016 114.148 316.289 114.184 315.586 114.184C314.625 114.184 313.711 114.066 312.844 113.832C312 113.598 311.25 113.188 310.594 112.602C309.938 112.039 309.422 111.277 309.047 110.316C308.672 109.355 308.484 108.137 308.484 106.66V85.9883H322.969V80.9609H308.484V71.75ZM353.133 119.703C356.836 119.703 359.941 118.965 362.449 117.488C364.98 115.988 366.879 114.277 368.145 112.355L364.172 109.262C362.977 110.809 361.477 112.051 359.672 112.988C357.867 113.926 355.805 114.395 353.484 114.395C351.727 114.395 350.121 114.066 348.668 113.41C347.215 112.754 345.973 111.852 344.941 110.703C343.934 109.625 343.137 108.383 342.551 106.977C341.988 105.57 341.625 103.941 341.461 102.09V101.844H368.637V98.9258C368.637 96.2773 368.297 93.8164 367.617 91.543C366.961 89.2695 365.953 87.2891 364.594 85.6016C363.234 83.9375 361.523 82.6367 359.461 81.6992C357.422 80.7383 355.031 80.2578 352.289 80.2578C350.109 80.2578 347.977 80.7031 345.891 81.5938C343.828 82.4844 341.988 83.7617 340.371 85.4258C338.73 87.1133 337.418 89.1758 336.434 91.6133C335.449 94.0273 334.957 96.7695 334.957 99.8398V101.316C334.957 103.965 335.402 106.414 336.293 108.664C337.184 110.914 338.426 112.859 340.02 114.5C341.613 116.141 343.523 117.418 345.75 118.332C348 119.246 350.461 119.703 353.133 119.703ZM352.289 85.6016C353.953 85.6016 355.383 85.9062 356.578 86.5156C357.797 87.125 358.805 87.9219 359.602 88.9062C360.398 89.8906 361.02 91.0625 361.465 92.4219C361.91 93.7578 362.133 95.0117 362.133 96.1836V96.5H341.672C341.93 94.7422 342.375 93.1953 343.008 91.8594C343.664 90.5 344.461 89.3516 345.398 88.4141C346.336 87.5 347.391 86.8086 348.562 86.3398C349.734 85.8477 350.977 85.6016 352.289 85.6016Z" fill="black"/>
<path d="M184.178 209.701V209.332C184.178 208.336 184.096 207.393 183.932 206.502C183.768 205.6 183.527 204.779 183.211 204.041C182.906 203.385 182.555 202.793 182.156 202.266C181.758 201.727 181.307 201.27 180.803 200.895C180.24 200.496 179.613 200.186 178.922 199.963C178.23 199.74 177.475 199.629 176.654 199.629C175.998 199.629 175.389 199.693 174.826 199.822C174.264 199.951 173.748 200.139 173.279 200.385C172.904 200.584 172.553 200.824 172.225 201.105C171.896 201.375 171.598 201.68 171.328 202.02V192H168.076V219H171.064L171.223 216.838C171.434 217.107 171.656 217.354 171.891 217.576C172.125 217.799 172.371 218.004 172.629 218.191C173.168 218.566 173.771 218.854 174.439 219.053C175.119 219.252 175.869 219.352 176.689 219.352C177.404 219.352 178.066 219.264 178.676 219.088C179.297 218.912 179.865 218.666 180.381 218.35C181.096 217.893 181.705 217.318 182.209 216.627C182.725 215.924 183.141 215.133 183.457 214.254C183.691 213.586 183.867 212.871 183.984 212.109C184.113 211.336 184.178 210.533 184.178 209.701ZM180.926 209.332V209.701C180.926 210.264 180.891 210.814 180.82 211.354C180.75 211.893 180.639 212.396 180.486 212.865C180.299 213.486 180.047 214.049 179.73 214.553C179.414 215.057 179.021 215.473 178.553 215.801C178.201 216.059 177.803 216.258 177.357 216.398C176.912 216.527 176.42 216.592 175.881 216.592C175.318 216.592 174.803 216.521 174.334 216.381C173.865 216.229 173.443 216.018 173.068 215.748C172.693 215.479 172.359 215.168 172.066 214.816C171.785 214.453 171.539 214.061 171.328 213.639V205.324C171.527 204.902 171.768 204.516 172.049 204.164C172.342 203.801 172.676 203.484 173.051 203.215C173.414 202.957 173.83 202.758 174.299 202.617C174.768 202.465 175.283 202.389 175.846 202.389C176.361 202.389 176.83 202.447 177.252 202.564C177.674 202.682 178.055 202.846 178.395 203.057C178.887 203.35 179.303 203.754 179.643 204.27C179.982 204.785 180.258 205.354 180.469 205.975C180.621 206.479 180.732 207.018 180.803 207.592C180.885 208.154 180.926 208.734 180.926 209.332ZM191.209 226.682C192.064 226.682 192.82 226.523 193.477 226.207C194.133 225.891 194.707 225.498 195.199 225.029C195.691 224.561 196.107 224.051 196.447 223.5C196.799 222.949 197.086 222.428 197.309 221.936L206.959 199.98H203.32L198.416 212.32L197.52 214.553L196.676 212.25L191.455 199.98H187.816L196.008 218.104L194.707 220.635C194.59 220.869 194.426 221.168 194.215 221.531C194.016 221.895 193.775 222.246 193.494 222.586C193.201 222.926 192.867 223.219 192.492 223.465C192.129 223.711 191.725 223.834 191.279 223.834C191.115 223.834 190.887 223.822 190.594 223.799C190.312 223.787 190.025 223.77 189.732 223.746L189.205 226.4C189.416 226.447 189.727 226.506 190.137 226.576C190.547 226.646 190.904 226.682 191.209 226.682Z" fill="black"/>
</g>
<defs>
<linearGradient id="paint0_linear" x1="53.2181" y1="100.871" x2="80.2228" y2="78.7649" gradientUnits="userSpaceOnUse">
<stop stop-color="#00AFFF"/>
<stop offset="0.556" stop-color="#5282FF"/>
<stop offset="1" stop-color="#945DFF"/>
</linearGradient>
<linearGradient id="paint1_linear" x1="47.2678" y1="147.85" x2="117.059" y2="78.0586" gradientUnits="userSpaceOnUse">
<stop offset="0.108" stop-color="#C757BC"/>
<stop offset="0.173" stop-color="#CD5CA9"/>
<stop offset="0.492" stop-color="#E8744F"/>
<stop offset="0.716" stop-color="#F88316"/>
<stop offset="0.823" stop-color="#FF8900"/>
</linearGradient>
<linearGradient id="paint2_linear" x1="82.8489" y1="128.486" x2="89.9627" y2="100.281" gradientUnits="userSpaceOnUse">
<stop stop-color="#00AFFF"/>
<stop offset="0.556" stop-color="#5282FF"/>
<stop offset="1" stop-color="#945DFF"/>
</linearGradient>
<clipPath id="clip0">
<rect width="400" height="400" fill="white"/>
</clipPath>
</defs>
</svg>
