<svg width="112" height="32" viewBox="0 0 112 32" fill="none" xmlns="http://www.w3.org/2000/svg">
<path d="M4 10H24L17.6667 16.5L24 23H4V10Z" fill="url(#paint0_linear)" fill-opacity="0.5"/>
<path d="M17.56 5.024L15.544 5.264V23H17.56V5.024ZM25.984 10.352H23.392L17.776 16.088L23.992 23H26.656L20.32 16.064L25.984 10.352ZM34.1106 21.608C32.6226 21.608 31.2786 21.056 30.2946 20.24L29.1666 21.56C30.2466 22.496 31.8066 23.264 34.1106 23.264C36.7986 23.264 39.4146 22.208 39.4146 19.496C39.4146 17.144 37.7826 16.28 35.3106 15.608C32.7666 14.912 31.9746 14.528 31.9746 13.376C31.9746 12.416 32.6946 11.72 34.7106 11.72C36.3426 11.72 37.4226 12.224 38.3586 12.872L39.2706 11.48C38.1906 10.712 36.7026 10.088 34.6626 10.088C31.8066 10.088 29.8626 11.432 29.8626 13.544C29.8626 15.752 31.5666 16.544 34.1826 17.192C36.8706 17.864 37.2306 18.464 37.2306 19.592C37.2306 20.816 36.0546 21.608 34.1106 21.608ZM54.2373 22.352L53.4453 20.984C52.7733 21.344 51.9573 21.584 51.0213 21.584C49.2933 21.584 48.5973 20.84 48.5973 19.448V11.936H52.7253L52.9893 10.352H48.5973V7.256L46.5813 7.496V10.352H43.6773V11.936H46.5813V19.472C46.5813 21.68 48.1172 23.264 50.8293 23.264C52.0293 23.264 53.3493 22.928 54.2373 22.352ZM67.6439 20.24V14.168C67.6439 11.672 66.0599 10.088 62.9159 10.088C61.6679 10.088 60.3239 10.328 58.7639 10.88L59.3159 12.416C60.6119 11.96 61.7639 11.768 62.6039 11.768C64.4759 11.768 65.6039 12.44 65.6039 14.288V15.32H63.7319C59.9159 15.32 57.8279 16.784 57.8279 19.376C57.8279 21.728 59.3639 23.264 61.9079 23.264C63.5399 23.264 64.9559 22.664 65.8679 21.488C66.2039 22.64 67.0919 23.144 68.1719 23.288L68.6759 21.848C67.9559 21.632 67.6439 21.248 67.6439 20.24ZM62.4119 21.752C60.7559 21.752 59.9879 20.936 59.9879 19.352C59.9879 17.72 60.9959 16.712 63.7799 16.712H65.6039V19.952C64.8599 21.08 63.6599 21.752 62.4119 21.752ZM83.0185 22.352L82.2265 20.984C81.5545 21.344 80.7385 21.584 79.8025 21.584C78.0745 21.584 77.3785 20.84 77.3785 19.448V11.936H81.5065L81.7705 10.352H77.3785V7.256L75.3625 7.496V10.352H72.4585V11.936H75.3625V19.472C75.3625 21.68 76.8985 23.264 79.6105 23.264C80.8105 23.264 82.1305 22.928 83.0185 22.352ZM88.9611 17.384H97.4571C97.4811 17.12 97.5051 16.736 97.5051 16.304C97.5051 12.464 95.5371 10.088 92.3451 10.088C88.9851 10.088 86.8491 12.872 86.8491 16.688C86.8491 20.624 88.9371 23.264 92.6331 23.264C94.1931 23.264 95.7771 22.712 96.9531 21.8L96.0171 20.456C94.8891 21.2 93.9291 21.584 92.6331 21.584C90.6891 21.584 89.0571 20.312 88.9611 17.384ZM92.3691 11.744C94.2891 11.744 95.4891 13.136 95.5371 15.848H88.9611C89.1291 13.064 90.4971 11.744 92.3691 11.744Z" fill="black"/>
<path d="M0 10H13L6.66667 16.5L13 23H0V10Z" fill="black"/>
<path fill-rule="evenodd" clip-rule="evenodd" d="M23.3333 23H27.3333L21 16.5L27.3333 10H23.3333L17 16.5L23.3333 23Z" fill="black"/>
<defs>
<linearGradient id="paint0_linear" x1="27" y1="23" x2="4" y2="23" gradientUnits="userSpaceOnUse">
<stop stop-color="#EF32D9"/>
<stop offset="1" stop-color="#00DBDE"/>
</linearGradient>
</defs>
</svg>
