<svg width="121" height="47" viewBox="0 0 121 47" fill="none" xmlns="http://www.w3.org/2000/svg">
<path fill-rule="evenodd" clip-rule="evenodd" d="M14.265 45.7297C13.1579 46.0048 10.9188 46.4071 10.9188 46.4071H28.0465L51.0344 0L74.415 46.4071V0L97.7957 30.1115L120.822 0H74.415H51.0344H4.18799C5.53036 0 6.76354 0.411245 7.82805 0.76624L8.00404 0.824852C10.6364 1.69923 12.8905 3.15949 14.6622 5.29842C16.8432 7.93142 17.4902 10.9295 16.6195 14.2434C16.5604 14.4683 16.4814 14.6881 16.4024 14.9076C16.3807 14.9681 16.3589 15.0286 16.3376 15.0892C16.2999 15.1962 16.3104 15.2666 16.431 15.2992C16.4724 15.3104 16.5125 15.3265 16.5526 15.3426L16.5527 15.3426L16.5746 15.3513C16.5844 15.3552 16.5943 15.3591 16.6041 15.3628C17.7295 15.7866 18.8182 16.2893 19.8562 16.8971C22.5152 18.4542 24.7281 20.4836 26.3428 23.1234C28.2351 26.217 28.7587 29.5576 28.0425 33.0982C27.5676 35.4454 26.4883 37.5025 24.9225 39.2971C22.0606 42.5773 18.4796 44.6823 14.265 45.7297ZM0.00360739 30.1354L0.00353205 28.5444C0.00341356 26.8777 0.00329518 25.2109 0.00434661 23.5442C0.00437796 23.4979 0.0029583 23.4579 0.0017333 23.4235C-0.00546026 23.221 -0.00593859 23.2076 0.33359 23.2077C3.00274 23.2087 5.67186 23.2092 8.34101 23.2079C9.86956 23.2072 11.3422 23.4665 12.7259 24.1426C14.0706 24.7996 15.2106 25.7023 16.0343 26.9655C17.5595 29.3043 17.2508 32.3067 15.2801 34.3577C13.9498 35.7423 12.3258 36.5792 10.4426 36.9256C9.77444 37.0484 9.1009 37.1024 8.4219 37.1021C6.46157 37.1012 4.50125 37.1014 2.54091 37.1016L0.3221 37.1018C0.305539 37.1018 0.288955 37.1014 0.272371 37.1011C0.237567 37.1004 0.202761 37.0998 0.168152 37.1021C0.0523055 37.11 -0.0040623 37.0623 0.00323784 36.9422C0.00618815 36.8935 0.00531483 36.8446 0.00444162 36.7958C0.00402939 36.7727 0.00361729 36.7496 0.00360739 36.7266V30.1354ZM0.00343275 11.0231L0.00360083 11.6075L0.00335681 12.1909C0.00304103 12.6942 0.00272524 13.1975 0.00452483 13.7007C0.00532579 13.9188 0.0103465 13.9248 0.226454 13.925C0.419194 13.9251 0.611943 13.9255 0.804695 13.926H0.80471L0.806924 13.926C1.53687 13.9275 2.26685 13.9291 2.9966 13.9172C3.49994 13.909 3.99743 13.8409 4.46805 13.6373C5.05504 13.3834 5.42676 12.9491 5.58321 12.3317C5.67235 11.9798 5.68485 11.62 5.64521 11.2613C5.54153 10.3229 5.02778 9.72222 4.12436 9.45742C3.81865 9.36781 3.5049 9.3124 3.18496 9.31021C2.20009 9.30337 1.2152 9.29776 0.230273 9.29536C0.00763595 9.29484 0.00470972 9.30168 0.00415528 9.545C0.00300741 10.0377 0.00322008 10.5304 0.00343275 11.0231ZM83.9799 46.4071V27.9859L97.7957 45.3443L111.612 27.9859V46.4071H97.7957H83.9799ZM51.1504 23L39.8221 46H62.8221L51.1504 23Z" fill="white"/>
</svg>
