<svg width="1468" height="824" viewBox="0 0 1468 824" fill="none" xmlns="http://www.w3.org/2000/svg">
<style>
  .path {
    stroke-dasharray: 5, 4;
    animation: dash 500s linear;
  }

  @keyframes dash {
    to {
      stroke-dashoffset: -10000;
    }
  }
</style>
<path d="M888.442 297.763C887.512 296.834 886.667 295.989 885.737 295.059C883.691 293.176 881.56 291.209 879.205 289.509C876.851 287.809 874.273 286.377 871.369 285.274C868.466 284.171 865.526 283.359 862.429 283.044C859.248 282.646 856.199 282.707 853.217 282.998C850.132 283.351 847.283 284.102 844.584 285.168C841.886 286.235 839.356 287.47 836.894 288.935C835.765 289.607 834.738 290.217 833.61 290.889C832.275 291.683 831.044 292.415 829.71 293.209L800.873 310.365L788.968 317.448C787.634 318.241 786.403 318.974 785.069 319.768C783.94 320.439 782.914 321.05 781.785 321.721C781.169 322.088 780.553 322.454 780.125 322.844C778.465 323.966 776.702 325.15 775.211 326.441C773.72 327.733 772.398 329.193 771.263 330.677C770.919 331.152 770.557 331.772 770.213 332.246C769.247 333.899 768.655 335.599 768.148 337.383C768.076 337.966 767.901 338.609 767.828 339.191C767.52 341.666 767.792 344.065 768.354 346.427C769 348.874 770.141 351.161 771.674 353.349C773.207 355.537 775.049 357.542 776.974 359.631C777.904 360.561 778.749 361.406 779.679 362.336C780.778 363.434 781.792 364.449 782.891 365.547L797.512 380.169L816.444 399.101C817.543 400.199 818.557 401.213 819.655 402.312C820.585 403.242 821.43 404.087 822.36 405.017C824.406 406.9 826.538 408.867 828.892 410.567C831.246 412.266 833.824 413.698 836.728 414.801C839.631 415.905 842.571 416.717 845.668 417.031C848.85 417.43 851.898 417.369 854.88 417.077C857.965 416.725 860.814 415.973 863.513 414.907C866.211 413.841 868.741 412.606 871.204 411.14C872.332 410.469 873.359 409.858 874.488 409.187C875.822 408.393 877.053 407.66 878.387 406.867L919.129 382.628C920.463 381.834 921.694 381.102 923.028 380.308C924.157 379.636 925.184 379.026 926.312 378.354C928.588 376.865 930.967 375.315 932.989 373.573C935.011 371.831 936.677 369.896 937.903 367.684C939.128 365.472 939.979 363.214 940.184 360.8C940.492 358.325 940.221 355.926 939.659 353.564C939.013 351.117 937.872 348.831 936.339 346.642C934.805 344.454 933.067 342.388 931.038 340.36C930.109 339.43 929.263 338.585 928.334 337.655C927.235 336.557 926.221 335.542 925.122 334.444L891.569 300.891C890.555 299.876 889.54 298.862 888.442 297.763Z" fill="#BDBDBD"/>
<path d="M896.272 341.767C896.037 341.368 895.802 340.969 895.566 340.57C885.291 323.093 856.731 312.046 828.841 313.946C846.179 318.189 860.842 327.124 867.296 338.652C867.833 339.68 868.37 340.708 868.805 341.798C868.141 341.788 867.374 341.84 866.403 342.014C866.403 342.014 838.362 343.599 801.598 338.916C800.662 338.798 825.642 345.774 849.439 349.275C840.596 350.088 813.81 349.983 795.193 348.388C798.302 349.369 801.616 350.228 804.864 350.857C822.986 354.903 845.993 359.414 868.637 359.961C863.789 370.663 850.46 379.267 831.487 382.063C826.833 382.81 822.045 383.097 817.294 383.092C830.648 387.28 846.168 388.56 860.934 385.976C878.429 382.847 891.106 374.901 896.424 364.997C896.424 364.997 896.527 364.936 896.442 364.851C896.684 364.438 896.84 363.94 897.082 363.527C899.756 358.836 906.843 351.519 919.545 356.364C922.756 357.284 915.18 345.616 896.272 341.767Z" fill="white"/>
<path d="M617.565 427.194L610.213 506.869L563 459.657L617.565 427.194Z" fill="url(#paint0_linear)"/>
<path d="M617.565 427.194L610.213 506.869L652.419 549.076L661.997 471.751L671.678 395L617.565 427.194Z" fill="url(#paint1_linear)"/>
<path d="M661.994 471.748L761.094 484.416L652.416 549.072L661.994 471.748Z" fill="url(#paint2_linear)"/>
<path fill-rule="evenodd" clip-rule="evenodd" d="M505 723.657L551.126 696.215L596.869 669.001L588.685 733.878L672.454 744.586L580.589 799.24L580.588 799.245L580.586 799.242L580.585 799.242L580.585 799.242L544.91 763.567L505 723.657Z" fill="#DBDBDB"/>
<path fill-rule="evenodd" clip-rule="evenodd" d="M699.062 609.001L737.013 646.953L774.65 684.589L691.231 674.105L682.784 739.244L607.199 663.658L607.193 663.657L650.555 637.859L699.062 609.001Z" fill="#DBDBDB"/>
<path fill-rule="evenodd" clip-rule="evenodd" d="M800.754 548.501L838.705 586.453L876.342 624.089L792.923 613.605L784.476 678.743L708.892 603.158L708.886 603.157L708.889 603.155L708.888 603.155L708.89 603.155L752.248 577.359L800.754 548.501Z" fill="#DBDBDB"/>
<g clip-path="url(#clip0)">
<path d="M792.416 226.672C791.495 227.22 790.37 227.531 789.183 227.566C787.996 227.6 786.8 227.357 785.748 226.867C784.695 226.377 783.832 225.661 783.268 224.811C782.704 223.961 782.465 223.014 782.58 222.091C782.695 221.167 783.16 220.308 783.915 219.623C784.671 218.938 785.683 218.456 786.824 218.24C787.965 218.023 789.183 218.082 790.325 218.407C791.467 218.733 792.481 219.311 793.239 220.069C794.254 221.085 794.737 222.351 794.583 223.589C794.428 224.827 793.649 225.935 792.416 226.672V226.672ZM740.942 257.295C740.021 257.843 738.896 258.154 737.709 258.189C736.522 258.224 735.327 257.981 734.274 257.49C733.221 257 732.358 256.285 731.795 255.434C731.231 254.584 730.991 253.638 731.106 252.714C731.222 251.791 731.686 250.932 732.442 250.247C733.197 249.561 734.209 249.08 735.35 248.863C736.491 248.647 737.71 248.705 738.852 249.031C739.994 249.356 741.008 249.934 741.766 250.692C742.781 251.709 743.264 252.975 743.11 254.213C742.955 255.451 742.176 256.559 740.942 257.295V257.295ZM771.005 202.597L767.049 183.798C766.995 183.541 766.878 183.292 766.704 183.064C766.53 182.837 766.302 182.636 766.034 182.473C765.767 182.31 765.464 182.188 765.143 182.114C764.822 182.04 764.49 182.015 764.165 182.042C763.84 182.068 763.529 182.144 763.249 182.267C762.97 182.39 762.727 182.556 762.535 182.756C762.344 182.956 762.207 183.186 762.132 183.434C762.058 183.681 762.047 183.941 762.101 184.198L766.107 203.235C756.194 204.816 746.593 208.125 737.957 213.263C729.321 218.401 722.737 224.725 718.234 231.716L695.38 223.892C695.072 223.787 694.744 223.728 694.415 223.721C694.086 223.714 693.762 223.757 693.462 223.849C693.162 223.941 692.892 224.08 692.668 224.257C692.443 224.434 692.268 224.647 692.152 224.882C692.036 225.118 691.982 225.372 691.994 225.63C692.005 225.888 692.081 226.145 692.217 226.387C692.353 226.628 692.547 226.849 692.788 227.036C693.028 227.224 693.311 227.375 693.619 227.481L716.192 235.208C707.362 251.868 709.743 271.683 723.872 288.362L835.709 221.827C818.38 207.051 794.138 200.242 771.005 202.597" fill="white"/>
</g>
<path d="M960.938 81.8198C949.166 70.2505 955.262 57.7077 955.518 57.1206C941.026 53.1171 929.708 58.1212 925.929 60.1658C916.5 64.6195 913.152 74.4917 908.74 77.1167C904.327 79.7416 893.393 79.6891 886.292 84.099C876.907 89.8675 872.585 99.4961 874.687 109.4C878.901 129.341 907.105 145.831 928.129 151.544C938.415 154.332 950.303 157.295 957.43 152.685C964.288 148.235 963.429 143.104 971.985 138.013C980.542 132.923 986.722 135.258 994.104 130.69C1001.6 126.036 1000.85 117.574 999.916 109.196C998.817 99.5093 994.77 91.9096 994.566 91.5035C994.339 91.5462 975.017 95.6514 960.938 81.8198" fill="white"/>
<path d="M912.669 56.0006C912.683 49.7863 909.908 42.8074 903.789 37.8463C898.35 41.3785 894.441 48.3284 894.294 54.6225C894.117 60.2126 896.454 67.6087 902.597 72.3805C909.27 69.0486 912.65 62.2096 912.669 56.0006" fill="white"/>
<path class="path" d="M795 613L848 419" stroke="white" stroke-width="3" stroke-linejoin="round"/>
<path class="path" d="M867 350L921 152" stroke="white" stroke-width="3" stroke-linejoin="round"/>
<path class="path" d="M593 739L646 544" stroke="white" stroke-width="3" stroke-linejoin="round"/>
<path class="path" d="M667 467L717 283" stroke="white" stroke-width="3" stroke-linejoin="round"/>
<defs>
<linearGradient id="paint0_linear" x1="671.694" y1="503.134" x2="681.953" y2="452.984" gradientUnits="userSpaceOnUse">
<stop stop-color="#F5F5F5"/>
<stop offset="0.556" stop-color="#E5E5E5"/>
<stop offset="1" stop-color="#C4C4C4"/>
</linearGradient>
<linearGradient id="paint1_linear" x1="719.082" y1="564.275" x2="737.004" y2="420.9" gradientUnits="userSpaceOnUse">
<stop offset="0.108" stop-color="#C4C4C4"/>
<stop offset="0.173" stop-color="#CBCBCB"/>
<stop offset="0.492" stop-color="#E5E5E5"/>
<stop offset="0.716" stop-color="#F5F5F5"/>
<stop offset="0.823" stop-color="#F5F5F5"/>
</linearGradient>
<linearGradient id="paint2_linear" x1="747.554" y1="510.514" x2="733.811" y2="467.681" gradientUnits="userSpaceOnUse">
<stop stop-color="#F5F5F5"/>
<stop offset="0.556" stop-color="#E5E5E5"/>
<stop offset="1" stop-color="#C4C4C4"/>
</linearGradient>
<clipPath id="clip0">
<rect width="130.132" height="73.3182" fill="white" transform="matrix(0.859406 -0.511293 0.707107 0.707107 672 236.535)"/>
</clipPath>
</defs>
</svg>
